HIERARCHY
ROOT Hips
{
	OFFSET 0.000000 0.000000 0.000000
	CHANNELS 6 Xposition Yposition Zposition Xrotation Yrotation Zrotation
	JOINT LeftUpLeg_virtual
	{
		OFFSET 0.000000 0.000000 0.000000
		CHANNELS 3 Xrotation Yrotation Zrotation
		JOINT LeftUpLeg
		{
			OFFSET 15.427100 -6.655098 0.678600
			CHANNELS 3 Xrotation Yrotation Zrotation
			JOINT LeftLeg
			{
				OFFSET 4.081073 -39.591068 13.024000
				CHANNELS 3 Xrotation Yrotation Zrotation
				JOINT LeftFoot
				{
					OFFSET -4.081074 -37.707932 -15.979700
					CHANNELS 3 Xrotation Yrotation Zrotation
					JOINT LeftToeBase
					{
						OFFSET 5.346399 -15.068900 20.645000
						CHANNELS 3 Xrotation Yrotation Zrotation
						JOINT LeftToe_End
						{
							OFFSET 2.754700 0.931300 11.300900
							CHANNELS 3 Xrotation Yrotation Zrotation
							End Site
							{
								OFFSET 0 0 0
							}
						}
					}
				}
			}
		}
	}
	JOINT RightUpLeg_virtual
	{
		OFFSET 0.000000 0.000000 0.000000
		CHANNELS 3 Xrotation Yrotation Zrotation
		JOINT RightUpLeg
		{
			OFFSET -15.569500 -6.655098 0.678600
			CHANNELS 3 Xrotation Yrotation Zrotation
			JOINT RightLeg
			{
				OFFSET -4.081825 -39.591045 13.023800
				CHANNELS 3 Xrotation Yrotation Zrotation
				JOINT RightFoot
				{
					OFFSET 4.081824 -37.707954 -15.979600
					CHANNELS 3 Xrotation Yrotation Zrotation
					JOINT RightToeBase
					{
						OFFSET -5.346400 -15.068900 20.645000
						CHANNELS 3 Xrotation Yrotation Zrotation
						JOINT RightToe_End
						{
							OFFSET -2.754700 0.931300 11.300900
							CHANNELS 3 Xrotation Yrotation Zrotation
							End Site
							{
								OFFSET 0 0 0
							}
						}
					}
				}
			}
		}
	}
	JOINT Spine_virtual
	{
		OFFSET 0.000000 0.000000 0.000000
		CHANNELS 3 Xrotation Yrotation Zrotation
		JOINT Spine
		{
			OFFSET -0.279200 12.230698 -2.892100
			CHANNELS 3 Xrotation Yrotation Zrotation
			JOINT Spine1
			{
				OFFSET -0.232667 10.192268 -1.242267
				CHANNELS 3 Xrotation Yrotation Zrotation
				JOINT Spine1_split
				{
					OFFSET -0.232667 10.192268 -1.242267
					CHANNELS 3 Xrotation Yrotation Zrotation
					JOINT Spine2
					{
						OFFSET -0.232667 10.192268 -1.242267
						CHANNELS 3 Xrotation Yrotation Zrotation
						JOINT Neck_virtual
						{
							OFFSET 0.000000 0.000000 0.000000
							CHANNELS 3 Xrotation Yrotation Zrotation
							JOINT Neck
							{
								OFFSET -0.418800 17.814194 8.416900
								CHANNELS 3 Xrotation Yrotation Zrotation
								JOINT Head
								{
									OFFSET 0.000000 7.031097 3.806800
									CHANNELS 3 Xrotation Yrotation Zrotation
									JOINT HeadTop_End
									{
										OFFSET 0.000000 24.646606 12.978600
										CHANNELS 3 Xrotation Yrotation Zrotation
										End Site
										{
											OFFSET 0 0 0
										}
									}
								}
							}
						}
						JOINT LeftShoulder_virtual
						{
							OFFSET 0.000000 0.000000 0.000000
							CHANNELS 3 Xrotation Yrotation Zrotation
							JOINT LeftShoulder
							{
								OFFSET 8.476499 7.247704 -3.868750
								CHANNELS 3 Xrotation Yrotation Zrotation
								JOINT LeftShoulder_split
								{
									OFFSET 8.476499 7.247704 -3.868750
									CHANNELS 3 Xrotation Yrotation Zrotation
									JOINT LeftArm
									{
										OFFSET 9.308998 -2.777710 0.208600
										CHANNELS 3 Xrotation Yrotation Zrotation
										JOINT LeftForeArm
										{
											OFFSET 29.972298 0.000000 0.000000
											CHANNELS 3 Xrotation Yrotation Zrotation
											JOINT LeftHand
											{
												OFFSET 26.026505 0.000000 0.000000
												CHANNELS 3 Xrotation Yrotation Zrotation
												End Site
												{
													OFFSET 0 0 0
												}
											}
										}
									}
								}
							}
						}
						JOINT RightShoulder_virtual
						{
							OFFSET 0.000000 0.000000 0.000000
							CHANNELS 3 Xrotation Yrotation Zrotation
							JOINT RightShoulder
							{
								OFFSET -7.570500 7.247704 -3.868750
								CHANNELS 3 Xrotation Yrotation Zrotation
								JOINT RightShoulder_split
								{
									OFFSET -7.570500 7.247704 -3.868750
									CHANNELS 3 Xrotation Yrotation Zrotation
									JOINT RightArm
									{
										OFFSET -9.308998 -2.777710 0.208500
										CHANNELS 3 Xrotation Yrotation Zrotation
										JOINT RightForeArm
										{
											OFFSET -29.972300 0.000000 0.000000
											CHANNELS 3 Xrotation Yrotation Zrotation
											JOINT RightHand
											{
												OFFSET -26.026505 0.000000 0.000000
												CHANNELS 3 Xrotation Yrotation Zrotation
												End Site
												{
													OFFSET 0 0 0
												}
											}
										}
									}
								}
							}
						}
					}
				}
			}
		}
	}
}
MOTION
Frames: 11
Frame Time: 0.03333333
9.886126 59.021267 57.893227 0.000000 0.000000 0.000000 -16.791265 -48.002464 -10.553258 -45.260665 -15.669050 39.366120 51.214019 -9.962137 1.998501 -0.357725 -12.239095 -34.258955 -1.998920 0.383442 1.271172 0.000000 0.000000 0.000000 -18.864890 -43.920227 -10.570316 -16.129398 3.486507 -56.877775 71.263093 22.985267 -1.109899 -9.039349 -7.829737 24.230753 -21.696497 -0.596707 6.975873 0.000000 0.000000 0.000000 -15.885295 -41.651607 -11.049902 25.233178 3.486263 -9.573782 -0.801937 1.249480 0.546356 1.626682 -1.204572 1.230341 0.000000 0.000000 0.000000 0.798509 0.840726 0.928443 1.282852 15.048152 0.394715 0.957957 21.441386 -4.891206 0.000000 0.000000 0.000000 0.081639 1.049091 0.877924 0.855402 1.837110 -8.802069 -0.377778 -2.344898 2.279669 -59.515987 4.696557 -44.309486 -176.048454 -66.307463 -174.625684 0.000000 0.000000 0.000000 0.234977 0.541027 0.750216 2.629069 12.036069 -3.996722 -8.007792 -1.632311 1.921212 -45.672754 22.658275 87.033098 -175.062734 64.811679 173.460809 0.000000 0.000000 0.000000 
9.205532 59.704788 54.555996 0.000000 0.000000 0.000000 -15.983365 -47.465744 -8.460562 -42.378640 -14.764472 38.886214 43.567144 -10.324449 1.998915 4.113522 -12.695659 -36.448468 -1.369141 0.435404 0.743755 0.000000 0.000000 0.000000 -19.291407 -43.216564 -8.989721 -14.426804 1.363747 -57.469314 71.627941 22.957236 -1.622748 -16.493392 -11.397765 27.586950 -17.102440 0.281961 4.680184 0.000000 0.000000 0.000000 -17.065265 -42.336111 -10.185418 23.843565 4.657830 -8.654817 -0.193218 1.390218 -0.160839 0.767390 -0.675819 1.354394 0.000000 0.000000 0.000000 1.144146 0.931564 0.255178 1.727131 14.715214 0.182069 3.312553 21.004903 -5.332085 0.000000 0.000000 0.000000 0.710889 1.181062 0.207014 0.759475 2.921116 -8.499413 -0.440890 -3.932683 2.425849 -58.187420 4.778076 -45.713387 -176.923346 -64.789754 -175.112240 0.000000 0.000000 0.000000 0.797673 0.621448 0.011946 2.454444 12.863277 -3.740419 -8.012177 -0.627972 1.207665 -46.940031 20.904016 87.520733 -173.832686 67.659198 172.542900 0.000000 0.000000 0.000000 
8.509537 60.949631 51.077599 0.000000 0.000000 0.000000 -13.997112 -46.210000 -5.719927 -41.028478 -13.445337 37.960515 36.294662 -9.598897 1.894467 7.987661 -13.174030 -35.525176 -0.773440 0.376449 -0.009494 0.000000 0.000000 0.000000 -17.951276 -41.809968 -6.521273 -11.474268 -1.963669 -56.058105 70.570553 21.576883 -1.537373 -25.786558 -16.013922 26.771401 -10.411218 0.801471 3.195997 0.000000 0.000000 0.000000 -16.957951 -42.260539 -8.329279 22.460672 5.667713 -7.974811 0.379017 1.459649 -0.918515 -0.057741 -0.114106 1.474763 0.000000 0.000000 0.000000 1.399435 1.010062 -0.493052 2.132855 14.147129 0.103074 4.831568 19.979280 -5.293303 0.000000 0.000000 0.000000 1.254794 1.274664 -0.477103 0.710258 3.570999 -7.979525 -0.665711 -4.833553 1.995482 -57.641469 3.854151 -46.675679 -178.193133 -63.551522 -176.078807 0.000000 0.000000 0.000000 1.307886 0.683438 -0.781672 2.361926 13.818685 -4.084915 -7.167571 0.836114 0.671365 -48.096140 19.385894 87.473809 -173.151402 68.663168 171.987852 0.000000 0.000000 0.000000 
7.837761 62.596012 47.464272 0.000000 0.000000 0.000000 -11.751146 -45.048813 -3.259320 -41.357922 -11.780026 36.733918 32.089680 -8.556211 1.998300 10.143902 -13.581843 -32.385270 -0.986193 0.181654 -0.582543 0.000000 0.000000 0.000000 -15.683385 -40.377059 -4.059109 -8.834798 -5.616423 -52.767982 68.499434 19.197809 -0.821901 -34.127703 -19.894809 22.856405 -4.302917 1.010885 2.411184 0.000000 0.000000 0.000000 -15.888615 -42.076557 -6.122664 21.145574 6.396140 -7.493632 0.880363 1.434511 -1.507840 -0.233921 0.513460 1.395081 0.000000 0.000000 0.000000 1.528798 1.046461 -1.076586 2.443269 13.487083 -0.090940 5.337682 18.717327 -5.029187 0.000000 0.000000 0.000000 1.636915 1.298828 -0.988409 0.707376 3.729481 -7.448433 -1.004332 -4.663545 1.150321 -57.812893 2.781673 -46.981029 -179.687196 -63.097404 -177.408426 0.000000 0.000000 0.000000 1.723629 0.730219 -1.381573 2.367160 14.625791 -5.096215 -5.900599 1.883053 0.626611 -49.501267 18.180777 86.687928 -173.573876 67.328419 172.406173 0.000000 0.000000 0.000000 
7.260050 64.613091 43.858898 0.000000 0.000000 0.000000 -9.718184 -44.641874 -1.480910 -43.116826 -9.803727 35.333286 32.928328 -8.402014 2.197417 10.232500 -14.396418 -29.135412 -2.399150 -0.080208 -0.239936 0.000000 0.000000 0.000000 -13.172208 -39.710136 -2.171349 -8.013753 -8.560910 -48.401476 65.530611 16.894902 0.233226 -38.449679 -21.855369 19.693300 -1.715079 1.044938 1.982399 0.000000 0.000000 0.000000 -14.009801 -42.139525 -4.018346 19.968444 6.836136 -7.122987 1.281844 1.334317 -1.764247 -0.092138 0.901140 1.314400 0.000000 0.000000 0.000000 1.544426 1.038616 -1.308561 2.550001 13.009984 -0.539850 4.882222 17.628954 -4.842581 0.000000 0.000000 0.000000 1.864801 1.238724 -1.185854 0.724889 3.454862 -7.074675 -1.478385 -3.698405 -0.088730 -58.674692 2.144948 -46.643283 178.796089 -63.691835 -178.934605 0.000000 0.000000 0.000000 2.002388 0.729803 -1.602803 2.432306 15.166099 -6.328568 -4.891298 2.128940 1.039816 -51.117897 17.186627 85.375138 -174.848157 64.536975 173.633012 0.000000 0.000000 0.000000 
6.768660 67.073112 40.292259 0.000000 0.000000 0.000000 -8.295721 -45.189604 -0.638348 -45.224059 -6.779991 33.500729 38.433092 -8.599567 2.263418 7.820451 -15.088875 -25.782525 -4.554098 -0.409844 1.037030 0.000000 0.000000 0.000000 -10.551096 -40.362275 -1.007162 -9.757019 -10.599912 -43.404353 61.837056 15.109669 1.408306 -37.976887 -21.991563 19.008942 -2.811891 0.981958 1.645068 0.000000 0.000000 0.000000 -11.690680 -42.823162 -2.515847 18.926709 7.005575 -6.824729 1.558519 1.213088 -1.664534 0.395935 1.000216 1.095104 0.000000 0.000000 0.000000 1.492880 0.992815 -1.147629 2.493016 12.783683 -1.254635 3.700694 16.927089 -4.904576 0.000000 0.000000 0.000000 1.957772 1.127793 -1.055374 0.752378 2.834249 -6.899027 -1.915525 -2.411996 -1.245725 -60.100528 2.103554 -45.945781 177.423945 -65.008217 179.509515 0.000000 0.000000 0.000000 2.141962 0.701652 -1.411773 2.527325 15.390245 -7.429688 -4.164462 1.495389 1.581481 -52.621437 16.529462 83.979478 -176.164635 61.883215 174.920298 0.000000 0.000000 0.000000 
6.421164 70.023743 36.595451 0.000000 0.000000 0.000000 -7.048891 -46.642494 -0.596007 -46.161745 -2.627697 30.924487 46.506509 -8.116848 2.126054 2.743228 -14.749379 -21.646989 -6.452555 -0.824286 2.898015 0.000000 0.000000 0.000000 -8.169809 -42.452368 -0.640266 -13.411210 -12.438966 -38.061082 57.842557 13.461984 2.771430 -34.564377 -20.677827 19.329697 -4.658144 0.938703 1.291791 0.000000 0.000000 0.000000 -8.989056 -44.334085 -1.686471 18.002266 6.975746 -6.560307 1.693324 1.139317 -1.319128 0.987916 0.994511 0.762330 0.000000 0.000000 0.000000 1.418309 0.941997 -0.714689 2.363265 12.830573 -2.110525 2.209824 16.657908 -5.263085 0.000000 0.000000 0.000000 1.947478 1.019479 -0.710347 0.750698 2.117112 -6.809605 -2.198247 -1.382334 -1.778818 -61.941995 2.638087 -45.042441 176.519505 -66.447058 178.282322 0.000000 0.000000 0.000000 2.171641 0.686430 -0.942708 2.666571 15.352730 -8.151465 -3.773963 0.482605 2.056285 -53.847921 16.192306 82.888970 -177.211116 60.435126 175.953610 0.000000 0.000000 0.000000 
6.212587 73.288071 32.724453 0.000000 0.000000 0.000000 -5.599633 -48.619151 -0.953279 -45.073163 2.058389 27.817195 54.508396 -6.916189 1.653268 -4.097558 -13.353196 -17.019559 -7.276407 -1.134135 4.621832 0.000000 0.000000 0.000000 -5.755856 -45.537332 -0.617027 -17.715771 -14.340173 -32.640627 53.812369 11.510372 4.282613 -30.595607 -18.461218 18.996161 -4.389275 0.986687 0.930840 0.000000 0.000000 0.000000 -6.076497 -46.460303 -1.360004 17.103396 6.833877 -6.298504 1.657727 1.130864 -0.900983 1.264099 0.789458 0.599018 0.000000 0.000000 0.000000 1.351588 0.918889 -0.201782 2.247363 13.109635 -2.863845 0.869649 16.809707 -5.801820 0.000000 0.000000 0.000000 1.843921 0.950520 -0.308290 0.705694 1.465435 -6.641867 -2.220494 -0.801690 -1.842393 -64.341065 3.299208 -44.112801 176.369678 -67.661220 177.721399 0.000000 0.000000 0.000000 2.088292 0.692266 -0.414424 2.825522 15.151223 -8.410798 -3.594003 -0.257333 2.231639 -54.977982 16.389594 82.507305 -177.910500 60.274965 176.681161 0.000000 0.000000 0.000000 
6.054034 76.523651 28.818718 0.000000 0.000000 0.000000 -3.709613 -50.976495 -1.290642 -41.712676 6.625361 24.526757 59.787542 -5.166477 0.910221 -11.076187 -11.410803 -12.388074 -7.604046 -1.296542 5.507277 0.000000 0.000000 0.000000 -3.605755 -49.105194 -0.773909 -21.515306 -16.245284 -27.914777 50.710459 9.194294 5.540171 -26.999531 -16.262820 17.703261 -2.716849 1.096417 0.657277 0.000000 0.000000 0.000000 -3.190340 -49.012778 -1.249084 16.146682 6.658582 -6.090250 1.465136 1.171900 -0.571279 1.498181 0.465891 0.463671 0.000000 0.000000 0.000000 1.292704 0.929108 0.217858 2.197885 13.461509 -3.316762 0.054748 17.231753 -6.378686 0.000000 0.000000 0.000000 1.690028 0.950305 0.004329 0.648373 0.996802 -6.301686 -2.035879 -0.455602 -1.390933 -66.924775 3.798460 -43.288841 177.003915 -68.651857 177.931851 0.000000 0.000000 0.000000 1.936830 0.734350 -0.014291 3.015877 14.813603 -8.460817 -3.318267 -0.427721 2.088425 -56.186854 17.186223 82.862749 -178.148013 61.155567 176.984668 0.000000 0.000000 0.000000 
6.014629 79.238335 24.861103 0.000000 0.000000 0.000000 -1.439143 -53.680127 -1.225399 -36.503642 10.000284 21.330957 61.403045 -3.463480 0.332791 -16.732404 -9.336451 -8.532715 -9.302730 -1.458506 5.711136 0.000000 0.000000 0.000000 -1.958062 -52.852024 -0.959491 -24.004422 -17.603383 -24.657603 49.217776 6.802125 6.162030 -23.075446 -14.837865 16.696823 -1.684160 1.208665 0.504418 0.000000 0.000000 0.000000 -0.533254 -51.380733 -0.973199 15.139049 6.519892 -5.975750 1.148405 1.215627 -0.379810 1.402343 0.201040 0.492451 0.000000 0.000000 0.000000 1.182870 0.950279 0.464186 2.182850 13.822640 -3.347470 -0.089476 17.859708 -6.856740 0.000000 0.000000 0.000000 1.512477 0.970079 0.167764 0.599607 0.764651 -5.741164 -1.813969 -0.216075 -0.912384 -69.305035 3.949498 -42.633252 178.157766 -69.801275 178.688458 0.000000 0.000000 0.000000 1.763001 0.784358 0.185093 3.222628 14.389341 -8.425512 -2.964676 -0.267069 1.763683 -57.652192 18.315801 83.622744 -177.949951 62.616620 176.884646 0.000000 0.000000 0.000000 
5.971842 80.905876 20.981243 0.000000 0.000000 0.000000 0.564652 -56.351632 -0.829212 -30.707929 11.819433 18.719689 59.934876 -2.341962 0.213912 -21.056973 -7.222500 -6.056134 -12.369083 -1.535214 5.262074 0.000000 0.000000 0.000000 -0.943783 -56.105281 -1.081771 -25.047907 -17.678609 -23.240139 49.140844 4.967041 5.838973 -19.262226 -14.302052 16.829989 -1.584348 1.252819 0.588646 0.000000 0.000000 0.000000 1.583238 -53.334113 -0.489540 14.148160 6.460772 -5.978903 0.773110 1.217160 -0.283106 1.058652 0.057182 0.636501 0.000000 0.000000 0.000000 1.006206 0.936070 0.559360 2.193277 14.123720 -2.982666 0.390157 18.596167 -7.151401 0.000000 0.000000 0.000000 1.351030 0.979349 0.222102 0.599008 0.699506 -5.089044 -1.686520 0.079553 -0.852785 -71.161289 3.616106 -42.401627 179.457497 -71.336927 179.701212 0.000000 0.000000 0.000000 1.582238 0.805505 0.230182 3.396478 13.948286 -8.373104 -2.528097 -0.210455 1.463886 -59.236175 19.439357 84.415449 -177.412197 64.133892 176.465560 0.000000 0.000000 0.000000 
